<svg width="39" height="38" viewBox="0 0 39 38" fill="none" xmlns="http://www.w3.org/2000/svg">
<ellipse cx="19.5" cy="18.9348" rx="19.5" ry="18.9348" fill="#E5007D"/>
<g clip-path="url(#clip0_845_47790)">
<path d="M16.0981 15.4544C16.0281 14.755 15.4021 14.2188 14.6521 14.2188H12.0921C11.3421 14.2188 10.7161 14.755 10.6461 15.4544L10.1821 20.1363C10.1741 20.2506 10.2181 20.3669 10.3021 20.4494C10.3861 20.5338 10.5041 20.5844 10.6261 20.5844H11.5021L11.5181 28.1519C11.5181 28.3825 11.7341 28.5588 11.9801 28.5588H12.7241C12.9701 28.5588 13.1601 28.3825 13.1601 28.1519V21.8688C13.1601 21.7619 13.2621 21.6944 13.3741 21.6944C13.4861 21.6944 13.5801 21.7638 13.5801 21.8688V28.1538C13.5801 28.3844 13.7781 28.5625 14.0241 28.5625H14.7681C15.0141 28.5625 15.2221 28.3863 15.2221 28.1538V20.5863H16.1221C16.2441 20.5863 16.3621 20.5375 16.4461 20.455C16.5301 20.3706 16.5741 20.2563 16.5661 20.1419L16.0981 15.4544Z" fill="white"/>
<path d="M13.3722 10.1875C14.3882 10.1875 15.2102 10.96 15.2102 11.9106C15.2102 12.8631 14.3862 13.6337 13.3722 13.6337C12.3562 13.6337 11.5342 12.8631 11.5342 11.9106C11.5342 10.96 12.3582 10.1875 13.3722 10.1875Z" fill="white"/>
<path d="M18.9961 10.3824C18.6421 10.3824 18.3481 10.6506 18.3481 10.9824V27.7674C18.3481 28.0974 18.6441 28.3656 18.9961 28.3656C19.3501 28.3656 19.6441 28.0974 19.6441 27.7674V10.9806C19.6441 10.6506 19.3481 10.3824 18.9961 10.3824Z" fill="white"/>
<path d="M27.6982 20.4531C27.7822 20.3688 27.8262 20.2544 27.8182 20.14L27.3542 15.4544C27.2842 14.755 26.6582 14.2188 25.9082 14.2188H23.3482C22.5982 14.2188 21.9722 14.755 21.9022 15.4544L21.4382 20.1381C21.4302 20.2525 21.4742 20.3688 21.5582 20.4513C21.6422 20.5356 21.7602 20.5863 21.8822 20.5863H22.3482L21.8342 23.2225C21.7842 23.4831 21.8582 23.7494 22.0382 23.9519C22.2182 24.1544 22.4842 24.2706 22.7662 24.2706L22.7742 28.1538C22.7742 28.3844 22.9882 28.5625 23.2362 28.5625H23.9802C24.2262 28.5625 24.4162 28.3863 24.4162 28.1538V24.2706H24.8362V28.1538C24.8362 28.3844 25.0342 28.5625 25.2802 28.5625H26.0202C26.2662 28.5625 26.4742 28.3863 26.4742 28.1538V24.2706H26.5202C26.8002 24.2706 27.0682 24.1525 27.2482 23.9519C27.4282 23.7494 27.5022 23.4831 27.4522 23.2225L26.9382 20.5863H27.3742C27.4962 20.5863 27.6122 20.5375 27.6982 20.4531Z" fill="white"/>
<path d="M24.628 10.1875C25.644 10.1875 26.466 10.96 26.466 11.9106C26.466 12.8631 25.644 13.6337 24.628 13.6337C23.612 13.6337 22.79 12.8631 22.79 11.9106C22.79 10.96 23.612 10.1875 24.628 10.1875Z" fill="white"/>
</g>
<defs>
<clipPath id="clip0_845_47790">
<rect width="20" height="18.75" fill="white" transform="translate(9 10)"/>
</clipPath>
</defs>
</svg>
