<svg width="20" height="21" viewBox="0 0 20 21" fill="none" xmlns="http://www.w3.org/2000/svg">
<path d="M19.1847 19.0029C19.1847 19.2941 18.9545 19.5303 18.6706 19.5303H0.514164C0.230217 19.5303 0 19.2941 0 19.0029C0 18.7117 0.230217 18.4756 0.514164 18.4756H18.6706C18.9545 18.4756 19.1847 18.7117 19.1847 19.0029ZM9.07049 10.3461C9.16959 10.441 9.2955 10.4879 9.42121 10.4879C9.55875 10.4879 9.69597 10.4316 9.79726 10.3203C9.99097 10.1074 9.97972 9.77375 9.77213 9.57501C8.89066 8.73125 9.07923 7.01638 9.83679 6.04679C10.8647 4.73139 11.0909 2.38627 9.77207 1.12433C9.56454 0.925589 9.23907 0.937191 9.04536 1.15024C8.85165 1.36316 8.86296 1.6969 9.07062 1.89558C9.86243 2.65318 9.84482 4.35005 9.03437 5.38728C8.50169 6.06907 8.1833 6.98276 8.1608 7.89415C8.13606 8.89018 8.45921 9.76103 9.07049 10.3461ZM20 9.25062V10.2623C20 11.7125 18.8498 12.8923 17.4358 12.8923H16.2881C15.5089 15.1142 13.4334 16.7076 11.0021 16.7076H8.18279C5.08662 16.7076 2.56773 14.1242 2.56773 10.9487V5.71707C2.56773 5.42584 2.79795 5.18972 3.0819 5.18972H6.37993C7.04938 4.1459 7.01943 2.60677 6.2762 1.89551C6.06861 1.69683 6.05736 1.36316 6.25107 1.15017C6.44478 0.937191 6.77019 0.925655 6.97778 1.1244C8.29629 2.38627 8.07012 4.73132 7.0425 6.04672C6.28469 7.01645 6.09605 8.73132 6.97778 9.57494C7.18537 9.77368 7.19668 10.1073 7.00297 10.3203C6.80926 10.5333 6.48386 10.5448 6.27627 10.3462C5.6648 9.76103 5.34165 8.89025 5.36626 7.89415C5.38034 7.32627 5.50926 6.75746 5.73337 6.24441H3.59606V10.9487C3.59606 13.5426 5.65368 15.6529 8.18279 15.6529H11.0021C13.5312 15.6529 15.5889 13.5426 15.5889 10.9487V6.24441H11.7229C11.439 6.24441 11.2088 6.00829 11.2088 5.71707C11.2088 5.42584 11.439 5.18972 11.7229 5.18972H16.103C16.387 5.18972 16.6172 5.42584 16.6172 5.71707V6.62054H17.4359C18.8497 6.62054 20 7.80035 20 9.25062ZM18.9717 9.25062C18.9717 8.38195 18.2827 7.67524 17.4358 7.67524H16.6171V11.8377H17.4358C18.2827 11.8377 18.9717 11.1309 18.9717 10.2623V9.25062Z" fill="#177933"/>
</svg>
