<svg width="130" height="130" viewBox="0 0 130 130" fill="none" xmlns="http://www.w3.org/2000/svg">
<circle cx="65" cy="65" r="65" fill="#FFD400"/>
<path fill-rule="evenodd" clip-rule="evenodd" d="M59.4084 40.787L59.3362 40.787C58.558 40.7869 57.8578 40.7869 57.2751 40.8345C56.6512 40.8855 55.9882 41.0009 55.3384 41.332C54.3976 41.8113 53.6327 42.5762 53.1534 43.517C52.8223 44.1668 52.7069 44.8298 52.6559 45.4537C52.6083 46.0363 52.6083 46.7366 52.6084 47.5147V47.5148V47.5148V47.5148L52.6084 47.587V50.2479V51.4913C52.6084 52.5959 53.5038 53.4913 54.6084 53.4913C55.713 53.4913 56.6084 52.5959 56.6084 51.4913V50.2479V47.587C56.6084 46.7139 56.6099 46.1794 56.6426 45.7795C56.6578 45.5932 56.677 45.4804 56.6931 45.412C56.7007 45.3794 56.7072 45.3594 56.711 45.3486C56.7148 45.3382 56.717 45.3338 56.7174 45.333C56.8133 45.1448 56.9662 44.9919 57.1544 44.896C57.1552 44.8956 57.1596 44.8934 57.17 44.8896C57.1808 44.8858 57.2008 44.8794 57.2334 44.8717C57.3018 44.8556 57.4146 44.8364 57.6009 44.8212C58.0008 44.7885 58.5353 44.787 59.4084 44.787H80.5223C81.3954 44.787 81.9299 44.7885 82.3298 44.8212C82.5161 44.8364 82.6288 44.8556 82.6973 44.8717C82.7299 44.8794 82.7499 44.8858 82.7607 44.8896C82.7711 44.8934 82.7755 44.8956 82.7763 44.896C82.9645 44.9919 83.1174 45.1448 83.2133 45.333C83.2137 45.3338 83.2159 45.3382 83.2197 45.3486C83.2235 45.3594 83.2299 45.3794 83.2376 45.412C83.2537 45.4804 83.2729 45.5932 83.2881 45.7795C83.3207 46.1794 83.3223 46.7139 83.3223 47.587V82.7522C83.3223 83.6253 83.3207 84.1598 83.2881 84.5597C83.2729 84.746 83.2537 84.8588 83.2376 84.9272C83.235 84.9381 83.2326 84.9476 83.2304 84.9558C83.2291 84.9606 83.2279 84.9649 83.2267 84.9688C83.2239 84.9784 83.2215 84.9855 83.2197 84.9906C83.2159 85.001 83.2137 85.0054 83.2133 85.0062C83.1174 85.1944 82.9645 85.3473 82.7763 85.4432C82.7755 85.4436 82.7711 85.4458 82.7607 85.4496C82.7499 85.4534 82.7299 85.4599 82.6973 85.4675C82.6288 85.4836 82.5161 85.5028 82.3298 85.518C81.9299 85.5507 81.3954 85.5522 80.5223 85.5522H59.4084C58.5353 85.5522 58.0008 85.5507 57.6009 85.518C57.4146 85.5028 57.3018 85.4836 57.2334 85.4675C57.2008 85.4599 57.1808 85.4534 57.17 85.4496C57.1596 85.4458 57.1552 85.4436 57.1544 85.4432C56.9662 85.3473 56.8133 85.1944 56.7174 85.0062C56.717 85.0054 56.7148 85.001 56.711 84.9906C56.7084 84.9831 56.7045 84.9712 56.6998 84.9538L56.6971 84.9437L56.6931 84.9272C56.677 84.8588 56.6578 84.746 56.6426 84.5597C56.6099 84.1598 56.6084 83.6253 56.6084 82.7522V80.0913V78.8479C56.6084 77.7433 55.713 76.8479 54.6084 76.8479C53.5038 76.8479 52.6084 77.7433 52.6084 78.8479V80.0913V82.7522L52.6084 82.8244C52.6083 83.6026 52.6083 84.3028 52.6559 84.8855C52.7069 85.5094 52.8223 86.1724 53.1534 86.8222C53.6327 87.763 54.3976 88.5279 55.3384 89.0072C55.9882 89.3383 56.6512 89.4537 57.2751 89.5047C57.8578 89.5523 58.558 89.5523 59.3362 89.5522H59.3363H59.3363H59.3363H59.4084H80.5223H80.5944H80.5944H80.5944H80.5945C81.3727 89.5523 82.0729 89.5523 82.6556 89.5047C83.2795 89.4537 83.9425 89.3383 84.5923 89.0072C85.5331 88.5279 86.298 87.763 86.7773 86.8222C87.1084 86.1724 87.2238 85.5094 87.2748 84.8855C87.3224 84.3029 87.3223 83.6027 87.3223 82.8245V82.8245V82.8245V82.8244V82.7522V47.587V47.5148V47.5147V47.5147V47.5147C87.3223 46.7365 87.3224 46.0363 87.2748 45.4537C87.2238 44.8298 87.1084 44.1668 86.7773 43.517C86.298 42.5762 85.5331 41.8113 84.5923 41.332C83.9425 41.0009 83.2795 40.8855 82.6556 40.8345C82.0729 40.7869 81.3727 40.7869 80.5945 40.787L80.5223 40.787H59.4084ZM42.7953 55.7184C37.6808 55.7184 33.7075 60.0521 33.7075 65.1793C33.7075 70.3065 37.6808 74.6402 42.7953 74.6402C47.2314 74.6402 50.8089 71.38 51.68 67.1696H66.784V72.6305C66.784 73.735 67.6795 74.6305 68.784 74.6305C69.8886 74.6305 70.784 73.735 70.784 72.6305V67.1696H73.8719V72.6305C73.8719 73.735 74.7673 74.6305 75.8719 74.6305C76.9764 74.6305 77.8719 73.735 77.8719 72.6305V65.1696C77.8719 64.065 76.9764 63.1696 75.8719 63.1696H68.784H51.676C50.7979 58.9686 47.2246 55.7184 42.7953 55.7184ZM37.7075 65.1793C37.7075 62.0655 40.0808 59.7184 42.7953 59.7184C45.5098 59.7184 47.8832 62.0655 47.8832 65.1793C47.8832 68.2932 45.5098 70.6402 42.7953 70.6402C40.0808 70.6402 37.7075 68.2932 37.7075 65.1793Z" fill="#3C3C3C"/>
</svg>
