<svg width="38" height="38" viewBox="0 0 38 38" fill="none" xmlns="http://www.w3.org/2000/svg">
<circle cx="19" cy="19" r="19" fill="#FFD400"/>
<g clip-path="url(#clip0_845_47422)">
<path fill-rule="evenodd" clip-rule="evenodd" d="M22.7 10.5C23.5525 10.5 24.1467 10.5006 24.6093 10.5384C25.0632 10.5755 25.324 10.6446 25.5215 10.7452C25.9448 10.961 26.289 11.3052 26.5048 11.7285C26.6054 11.926 26.6745 12.1868 26.7116 12.6407C26.7494 13.1033 26.75 13.6975 26.75 14.55V22.95C26.75 23.8025 26.7494 24.3967 26.7116 24.8593C26.6745 25.3132 26.6054 25.574 26.5048 25.7715C26.289 26.1948 25.9448 26.539 25.5215 26.7548C25.324 26.8554 25.0632 26.9245 24.6093 26.9616C24.1467 26.9994 23.5525 27 22.7 27H17.5C16.2574 27 15.25 25.9926 15.25 24.75V24.25C15.25 23.8358 14.9142 23.5 14.5 23.5C14.0858 23.5 13.75 23.8358 13.75 24.25V24.75C13.75 26.8211 15.4289 28.5 17.5 28.5H22.7H22.7321C23.545 28.5 24.2006 28.5 24.7315 28.4566C25.2781 28.412 25.7582 28.3176 26.2025 28.0913C26.9081 27.7317 27.4818 27.1581 27.8413 26.4525C28.0676 26.0082 28.162 25.5281 28.2066 24.9815C28.25 24.4506 28.25 23.795 28.25 22.9821V22.95V14.55V14.5179C28.25 13.705 28.25 13.0494 28.2066 12.5185C28.162 11.9719 28.0676 11.4918 27.8413 11.0475C27.4818 10.3419 26.9081 9.76825 26.2025 9.40873C25.7582 9.18239 25.2781 9.08803 24.7315 9.04336C24.2006 8.99999 23.5449 8.99999 22.7321 9H22.7H17.5C15.4289 9 13.75 10.6789 13.75 12.75V13.25C13.75 13.6642 14.0858 14 14.5 14C14.9142 14 15.25 13.6642 15.25 13.25V12.75C15.25 11.5074 16.2574 10.5 17.5 10.5H22.7ZM9.5 15.0039C7.42893 15.0039 5.75 16.6828 5.75 18.7539C5.75 20.825 7.42893 22.5039 9.5 22.5039C11.3156 22.5039 12.8298 21.2136 13.1758 19.5H19.75V21.75C19.75 22.1642 20.0858 22.5 20.5 22.5C20.9142 22.5 21.25 22.1642 21.25 21.75V19.5H22.75V21.75C22.75 22.1642 23.0858 22.5 23.5 22.5C23.9142 22.5 24.25 22.1642 24.25 21.75V18.75C24.25 18.3358 23.9142 18 23.5 18H20.5H13.1742C12.8252 16.2903 11.3128 15.0039 9.5 15.0039ZM7.25 18.7539C7.25 17.5113 8.25736 16.5039 9.5 16.5039C10.7426 16.5039 11.75 17.5113 11.75 18.7539C11.75 19.9965 10.7426 21.0039 9.5 21.0039C8.25736 21.0039 7.25 19.9965 7.25 18.7539Z" fill="#3C3C3C"/>
</g>
<defs>
<clipPath id="clip0_845_47422">
<rect width="22.5" height="23.5" fill="white" transform="translate(5.75 7)"/>
</clipPath>
</defs>
</svg>
