<svg width="24" height="24" viewBox="0 0 24 24" fill="none" xmlns="http://www.w3.org/2000/svg">
<path fill-rule="evenodd" clip-rule="evenodd" d="M6.8 3.25H6.7679H6.76788C5.95505 3.24999 5.29944 3.24999 4.76853 3.29336C4.2219 3.33803 3.74175 3.43239 3.29754 3.65873C2.59193 4.01825 2.01825 4.59193 1.65873 5.29754C1.43239 5.74175 1.33803 6.2219 1.29336 6.76853C1.24999 7.29944 1.24999 7.95505 1.25 8.76788V8.7679V8.8V15.2V15.2321V15.2321C1.24999 16.045 1.24999 16.7006 1.29336 17.2315C1.33803 17.7781 1.43239 18.2582 1.65873 18.7025C2.01825 19.4081 2.59193 19.9818 3.29754 20.3413C3.74175 20.5676 4.2219 20.662 4.76853 20.7066C5.29944 20.75 5.95505 20.75 6.76788 20.75H6.8H17.2H17.2321C18.045 20.75 18.7006 20.75 19.2315 20.7066C19.7781 20.662 20.2582 20.5676 20.7025 20.3413C21.4081 19.9818 21.9818 19.4081 22.3413 18.7025C22.5676 18.2582 22.662 17.7781 22.7066 17.2315C22.75 16.7005 22.75 16.0449 22.75 15.232V15.2V8.8V8.76798C22.75 7.9551 22.75 7.29946 22.7066 6.76853C22.662 6.2219 22.5676 5.74175 22.3413 5.29754C21.9818 4.59193 21.4081 4.01825 20.7025 3.65873C20.2582 3.43239 19.7781 3.33803 19.2315 3.29336C18.7006 3.24999 18.045 3.24999 17.2321 3.25H17.2321H17.2H6.8ZM3.97852 4.99524C4.17604 4.8946 4.4368 4.82547 4.89068 4.78838C5.35331 4.75058 5.94755 4.75 6.8 4.75H17.2C18.0525 4.75 18.6467 4.75058 19.1093 4.78838C19.5632 4.82547 19.824 4.8946 20.0215 4.99524C20.4448 5.21095 20.7891 5.55516 21.0048 5.97852C21.1054 6.17604 21.1745 6.4368 21.2116 6.89068C21.2494 7.35331 21.25 7.94755 21.25 8.8V15.2C21.25 16.0525 21.2494 16.6467 21.2116 17.1093C21.1745 17.5632 21.1054 17.824 21.0048 18.0215C20.7891 18.4448 20.4448 18.7891 20.0215 19.0048C19.824 19.1054 19.5632 19.1745 19.1093 19.2116C18.6467 19.2494 18.0525 19.25 17.2 19.25H6.8C5.94755 19.25 5.35331 19.2494 4.89068 19.2116C4.4368 19.1745 4.17604 19.1054 3.97852 19.0048C3.55516 18.7891 3.21095 18.4448 2.99524 18.0215C2.8946 17.824 2.82547 17.5632 2.78838 17.1093C2.75058 16.6467 2.75 16.0525 2.75 15.2V8.8C2.75 7.94755 2.75058 7.35331 2.78838 6.89068C2.82547 6.4368 2.8946 6.17604 2.99524 5.97852C3.21095 5.55516 3.55516 5.21095 3.97852 4.99524ZM5.3721 6.84882C5.01247 6.64331 4.55433 6.76826 4.34882 7.1279C4.14331 7.48753 4.26826 7.94568 4.6279 8.15118L11.1318 11.8677C11.6698 12.1751 12.3302 12.1751 12.8682 11.8677L19.3721 8.15118C19.7317 7.94568 19.8567 7.48753 19.6512 7.1279C19.4457 6.76826 18.9875 6.64331 18.6279 6.84882L12.124 10.5653C12.0472 10.6092 11.9528 10.6092 11.876 10.5653L5.3721 6.84882Z" fill="#787878"/>
</svg>
