<svg width="20" height="19" viewBox="0 0 20 19" fill="none" xmlns="http://www.w3.org/2000/svg">
<g clip-path="url(#clip0_845_47589)">
<path d="M7.09808 5.45438C7.02808 4.755 6.40208 4.21875 5.65208 4.21875H3.09208C2.34208 4.21875 1.71608 4.755 1.64608 5.45438L1.18208 10.1363C1.17408 10.2506 1.21808 10.3669 1.30208 10.4494C1.38608 10.5338 1.50408 10.5844 1.62608 10.5844H2.50208L2.51808 18.1519C2.51808 18.3825 2.73408 18.5588 2.98008 18.5588H3.72408C3.97008 18.5588 4.16008 18.3825 4.16008 18.1519V11.8688C4.16008 11.7619 4.26208 11.6944 4.37408 11.6944C4.48608 11.6944 4.58008 11.7638 4.58008 11.8688V18.1538C4.58008 18.3844 4.77808 18.5625 5.02408 18.5625H5.76808C6.01408 18.5625 6.22208 18.3863 6.22208 18.1538V10.5863H7.12208C7.24408 10.5863 7.36208 10.5375 7.44608 10.455C7.53008 10.3706 7.57408 10.2563 7.56608 10.1419L7.09808 5.45438Z" fill="#E5007D"/>
<path d="M4.37218 0.1875C5.38818 0.1875 6.21018 0.96 6.21018 1.91062C6.21018 2.86312 5.38618 3.63375 4.37218 3.63375C3.35618 3.63375 2.53418 2.86312 2.53418 1.91062C2.53418 0.96 3.35818 0.1875 4.37218 0.1875Z" fill="#E5007D"/>
<path d="M9.99614 0.382446C9.64214 0.382446 9.34814 0.650571 9.34814 0.982446V17.7674C9.34814 18.0974 9.64414 18.3656 9.99614 18.3656C10.3501 18.3656 10.6441 18.0974 10.6441 17.7674V0.980571C10.6441 0.650571 10.3481 0.382446 9.99614 0.382446Z" fill="#E5007D"/>
<path d="M18.6982 10.4531C18.7822 10.3688 18.8262 10.2544 18.8182 10.14L18.3542 5.45438C18.2842 4.755 17.6582 4.21875 16.9082 4.21875H14.3482C13.5982 4.21875 12.9722 4.755 12.9022 5.45438L12.4382 10.1381C12.4302 10.2525 12.4742 10.3688 12.5582 10.4513C12.6422 10.5356 12.7602 10.5863 12.8822 10.5863H13.3482L12.8342 13.2225C12.7842 13.4831 12.8582 13.7494 13.0382 13.9519C13.2182 14.1544 13.4842 14.2706 13.7662 14.2706L13.7742 18.1538C13.7742 18.3844 13.9882 18.5625 14.2362 18.5625H14.9802C15.2262 18.5625 15.4162 18.3863 15.4162 18.1538V14.2706H15.8362V18.1538C15.8362 18.3844 16.0342 18.5625 16.2802 18.5625H17.0202C17.2662 18.5625 17.4742 18.3863 17.4742 18.1538V14.2706H17.5202C17.8002 14.2706 18.0682 14.1525 18.2482 13.9519C18.4282 13.7494 18.5022 13.4831 18.4522 13.2225L17.9382 10.5863H18.3742C18.4962 10.5863 18.6122 10.5375 18.6982 10.4531Z" fill="#E5007D"/>
<path d="M15.628 0.1875C16.644 0.1875 17.466 0.96 17.466 1.91062C17.466 2.86312 16.644 3.63375 15.628 3.63375C14.612 3.63375 13.79 2.86312 13.79 1.91062C13.79 0.96 14.612 0.1875 15.628 0.1875Z" fill="#E5007D"/>
</g>
<defs>
<clipPath id="clip0_845_47589">
<rect width="20" height="18.75" fill="white"/>
</clipPath>
</defs>
</svg>
