<svg width="34" height="34" viewBox="0 0 34 34" fill="none" xmlns="http://www.w3.org/2000/svg">
<path d="M0 17C0 7.61116 7.61116 0 17 0V0C26.3888 0 34 7.61116 34 17V17C34 26.3888 26.3888 34 17 34V34C7.61116 34 0 26.3888 0 17V17Z" fill="#2C2877"/>
<path fill-rule="evenodd" clip-rule="evenodd" d="M23.375 15.5834C23.375 20.5417 17 24.7917 17 24.7917C17 24.7917 10.625 20.5417 10.625 15.5834C10.625 12.0626 13.4792 9.20837 17 9.20837C20.5208 9.20837 23.375 12.0626 23.375 15.5834V15.5834Z" stroke="white" stroke-width="1.0625" stroke-linecap="round" stroke-linejoin="round"/>
<path fill-rule="evenodd" clip-rule="evenodd" d="M17 17.7084C18.1736 17.7084 19.125 16.757 19.125 15.5834C19.125 14.4098 18.1736 13.4584 17 13.4584C15.8264 13.4584 14.875 14.4098 14.875 15.5834C14.875 16.757 15.8264 17.7084 17 17.7084Z" stroke="white" stroke-width="1.0625" stroke-linecap="round" stroke-linejoin="round"/>
</svg>
