<svg width="38" height="38" viewBox="0 0 38 38" fill="none" xmlns="http://www.w3.org/2000/svg">
<circle cx="19" cy="19" r="19" fill="#FFC0D8"/>
<path fill-rule="evenodd" clip-rule="evenodd" d="M15.75 17C15.75 15.2051 17.2051 13.75 19 13.75C20.7949 13.75 22.25 15.2051 22.25 17C22.25 18.7949 20.7949 20.25 19 20.25C17.2051 20.25 15.75 18.7949 15.75 17ZM19 12.25C16.3766 12.25 14.25 14.3766 14.25 17C14.25 18.5322 14.9754 19.8949 16.1016 20.7635C13.9405 21.5373 12.031 23.1422 10.9087 25.28L12.2368 25.9772C13.596 23.3882 16.3186 21.75 19 21.75C21.6815 21.75 24.404 23.3882 25.7633 25.9772L27.0914 25.28C25.9691 23.1422 24.0595 21.5373 21.8984 20.7635C23.0246 19.8949 23.75 18.5322 23.75 17C23.75 14.3766 21.6233 12.25 19 12.25Z" fill="#3C3C3C"/>
</svg>
