<svg width="70" height="68" viewBox="0 0 70 68" fill="none" xmlns="http://www.w3.org/2000/svg">
<ellipse cx="35" cy="33.9855" rx="35" ry="33.9855" fill="#E5007D"/>
<g clip-path="url(#clip0_845_47704)">
<path d="M28.8938 27.7387C28.7682 26.4834 27.6446 25.5209 26.2984 25.5209H21.7036C20.3574 25.5209 19.2338 26.4834 19.1082 27.7387L18.2753 36.142C18.261 36.3473 18.34 36.556 18.4907 36.7041C18.6415 36.8555 18.8533 36.9464 19.0723 36.9464H20.6446L20.6733 50.5291C20.6733 50.943 21.061 51.2593 21.5025 51.2593H22.8379C23.2795 51.2593 23.6205 50.943 23.6205 50.5291V39.2516C23.6205 39.0598 23.8036 38.9387 24.0046 38.9387C24.2056 38.9387 24.3743 39.0632 24.3743 39.2516V50.5324C24.3743 50.9464 24.7297 51.2661 25.1712 51.2661H26.5066C26.9482 51.2661 27.3215 50.9497 27.3215 50.5324V36.9497H28.9369C29.1559 36.9497 29.3677 36.8622 29.5184 36.7141C29.6692 36.5627 29.7482 36.3574 29.7338 36.1521L28.8938 27.7387Z" fill="white"/>
<path d="M24.0009 18.2853C25.8245 18.2853 27.2999 19.6718 27.2999 21.3781C27.2999 23.0877 25.8209 24.4709 24.0009 24.4709C22.1773 24.4709 20.7019 23.0877 20.7019 21.3781C20.7019 19.6718 22.1809 18.2853 24.0009 18.2853Z" fill="white"/>
<path d="M34.0955 18.6353C33.4601 18.6353 32.9324 19.1165 32.9324 19.7122V49.8391C32.9324 50.4314 33.4637 50.9126 34.0955 50.9126C34.7308 50.9126 35.2585 50.4314 35.2585 49.8391V19.7088C35.2585 19.1165 34.7272 18.6353 34.0955 18.6353Z" fill="white"/>
<path d="M49.7144 36.7108C49.8651 36.5593 49.9441 36.3541 49.9298 36.1488L49.0969 27.7387C48.9713 26.4834 47.8477 25.5209 46.5016 25.5209H41.9067C40.5605 25.5209 39.4369 26.4834 39.3113 27.7387L38.4785 36.1454C38.4641 36.3507 38.5431 36.5593 38.6939 36.7074C38.8446 36.8589 39.0564 36.9497 39.2754 36.9497H40.1118L39.1892 41.6815C39.0995 42.1492 39.2323 42.6271 39.5554 42.9906C39.8785 43.3541 40.3559 43.5627 40.8621 43.5627L40.8764 50.5324C40.8764 50.9464 41.2605 51.2661 41.7057 51.2661H43.041C43.4826 51.2661 43.8236 50.9497 43.8236 50.5324V43.5627H44.5774V50.5324C44.5774 50.9464 44.9328 51.2661 45.3744 51.2661H46.7026C47.1441 51.2661 47.5174 50.9497 47.5174 50.5324V43.5627H47.6C48.1026 43.5627 48.5836 43.3507 48.9067 42.9906C49.2298 42.6271 49.3626 42.1492 49.2728 41.6815L48.3503 36.9497H49.1328C49.3518 36.9497 49.56 36.8622 49.7144 36.7108Z" fill="white"/>
<path d="M44.204 18.2853C46.0276 18.2853 47.503 19.6718 47.503 21.3781C47.503 23.0877 46.0276 24.4709 44.204 24.4709C42.3804 24.4709 40.905 23.0877 40.905 21.3781C40.905 19.6718 42.3804 18.2853 44.204 18.2853Z" fill="white"/>
</g>
<defs>
<clipPath id="clip0_845_47704">
<rect width="35.8974" height="33.6538" fill="white" transform="translate(16.1538 17.9487)"/>
</clipPath>
</defs>
</svg>
