<svg width="39" height="38" viewBox="0 0 39 38" fill="none" xmlns="http://www.w3.org/2000/svg">
<ellipse cx="19.5" cy="18.9348" rx="19.5" ry="18.9348" fill="#F7A600"/>
<path d="M17.7858 17.5171C17.7225 16.9267 17.1564 16.4741 16.4781 16.4741H14.163C13.4847 16.4741 12.9186 16.9267 12.8553 17.5171L12.4357 21.4688C12.4284 21.5654 12.4682 21.6635 12.5442 21.7331C12.6201 21.8043 12.7269 21.8471 12.8372 21.8471H13.6294L13.6439 28.2345C13.6439 28.4291 13.8392 28.5779 14.0617 28.5779H14.7345C14.957 28.5779 15.1288 28.4291 15.1288 28.2345V22.9312C15.1288 22.841 15.221 22.784 15.3223 22.784C15.4236 22.784 15.5086 22.8425 15.5086 22.9312V28.2361C15.5086 28.4307 15.6877 28.5811 15.9102 28.5811H16.583C16.8055 28.5811 16.9936 28.4323 16.9936 28.2361V21.8487H17.8075C17.9178 21.8487 18.0245 21.8075 18.1005 21.7379C18.1765 21.6667 18.2162 21.5701 18.209 21.4736L17.7858 17.5171Z" fill="white"/>
<path d="M15.3206 13C16.2395 13 16.9828 13.652 16.9828 14.4544C16.9828 15.2584 16.2376 15.9088 15.3206 15.9088C14.4018 15.9088 13.6584 15.2584 13.6584 14.4544C13.6584 13.652 14.4036 13 15.3206 13Z" fill="white"/>
<path d="M26.1328 21.7363C26.2087 21.6651 26.2485 21.5685 26.2413 21.472L25.8217 17.5171C25.7584 16.9267 25.1922 16.4741 24.514 16.4741H22.1988C21.5206 16.4741 20.9545 16.9267 20.8912 17.5171L20.4715 21.4704C20.4643 21.567 20.5041 21.6651 20.5801 21.7347C20.656 21.8059 20.7627 21.8487 20.8731 21.8487H21.2945L20.8297 24.0738C20.7844 24.2938 20.8514 24.5185 21.0142 24.6894C21.1769 24.8604 21.4175 24.9585 21.6725 24.9585L21.6798 28.2361C21.6798 28.4307 21.8733 28.5811 22.0976 28.5811H22.7704C22.9929 28.5811 23.1647 28.4323 23.1647 28.2361V24.9585H23.5445V28.2361C23.5445 28.4307 23.7236 28.5811 23.946 28.5811H24.6153C24.8377 28.5811 25.0258 28.4323 25.0258 28.2361V24.9585H25.0674C25.3207 24.9585 25.563 24.8588 25.7258 24.6894C25.8886 24.5185 25.9555 24.2938 25.9103 24.0738L25.4455 21.8487H25.8398C25.9501 21.8487 26.055 21.8075 26.1328 21.7363Z" fill="white"/>
<path d="M23.3565 13C24.2753 13 25.0187 13.652 25.0187 14.4544C25.0187 15.2584 24.2753 15.9088 23.3565 15.9088C22.4377 15.9088 21.6943 15.2584 21.6943 14.4544C21.6943 13.652 22.4377 13 23.3565 13Z" fill="white"/>
<rect x="10.6738" y="10.674" width="17.6522" height="21.0435" rx="1.76087" stroke="white"/>
<g clip-path="url(#clip0_845_47777)">
<path d="M17.4707 5.97109L15.4563 7.98547L13.4419 5.97109" stroke="white" stroke-width="1.13309" stroke-linecap="round" stroke-linejoin="round"/>
</g>
<g clip-path="url(#clip1_845_47777)">
<path d="M21.4849 7.98545L23.4993 5.97107L25.5137 7.98545" stroke="white" stroke-width="1.13309" stroke-linecap="round" stroke-linejoin="round"/>
</g>
<defs>
<clipPath id="clip0_845_47777">
<rect width="6.04314" height="6.04314" fill="white" transform="translate(12.4348 3.95654)"/>
</clipPath>
<clipPath id="clip1_845_47777">
<rect width="6.04314" height="6.04314" fill="white" transform="translate(20.4778 3.95654)"/>
</clipPath>
</defs>
</svg>
