<svg width="39" height="38" viewBox="0 0 39 38" fill="none" xmlns="http://www.w3.org/2000/svg">
<ellipse cx="19.5" cy="18.9348" rx="19.5" ry="18.9348" fill="#2C2877"/>
<path d="M13.599 19.2255C13.521 18.4455 12.8228 17.8474 11.9863 17.8474H9.13122C8.29476 17.8474 7.59659 18.4455 7.51853 19.2255L7.00104 24.4471C6.99211 24.5746 7.04119 24.7043 7.13487 24.7963C7.22855 24.8904 7.36016 24.9469 7.49622 24.9469H8.4732H10.5211C10.2468 24.9469 11.1137 24.9479 10.5211 24.9469C10.8697 24.9489 10.7955 24.9469 10.5211 24.9469C10.3962 24.9469 10.1421 24.9469 10.5211 24.9469C10.646 24.9469 10.4817 24.9489 10.9742 24.9489C10.9742 24.9489 11.1868 24.9469 11.4611 24.9469L12.622 24.9489C12.8964 24.9489 12.5764 24.7635 12.5764 24.5042L12.622 24.9489H13.6258C13.7619 24.9489 13.8935 24.8946 13.9871 24.8026C14.0808 24.7085 14.1299 24.5809 14.121 24.4533L13.599 19.2255Z" fill="white"/>
<path d="M10.7237 13.386C11.8568 13.386 12.7736 14.2475 12.7736 15.3078C12.7736 16.3701 11.8546 17.2295 10.7237 17.2295C9.59059 17.2295 8.67383 16.3701 8.67383 15.3078C8.67383 14.2475 9.59282 13.386 10.7237 13.386Z" fill="white"/>
<path d="M22.1224 14.3271C22.0491 13.8371 21.3931 13.4614 20.6072 13.4614H17.9246C17.1386 13.4614 16.4827 13.8371 16.4093 14.3271L15.9231 17.6073C15.9147 17.6874 15.9608 17.7688 16.0488 17.8266C16.1369 17.8858 16.2605 17.9212 16.3884 17.9212H17.3063H19.2305C18.9727 17.9212 19.7873 17.9219 19.2305 17.9212C19.5579 17.9225 19.4883 17.9212 19.2305 17.9212C19.1131 17.9212 18.8744 17.9212 19.2305 17.9212C19.3478 17.9212 19.1934 17.9225 19.6562 17.9225C19.6562 17.9225 19.8559 17.9212 20.1137 17.9212L21.2045 17.9225C21.4622 17.9225 21.1616 17.8061 21.1616 17.6432L21.2045 17.9225H22.1476C22.2754 17.9225 22.399 17.8884 22.4871 17.8306C22.5751 17.7715 22.6212 17.6913 22.6128 17.6112L22.1224 14.3271Z" fill="white"/>
<path d="M19.0872 9C20.2204 9 21.1371 9.86155 21.1371 10.9218C21.1371 11.9841 20.2181 12.8435 19.0872 12.8435C17.9541 12.8435 17.0374 11.9841 17.0374 10.9218C17.0374 9.86155 17.9563 9 19.0872 9Z" fill="white"/>
<path d="M31.4435 19.2255C31.3654 18.4455 30.6673 17.8474 29.8308 17.8474H26.9757C26.1392 17.8474 25.4411 18.4455 25.363 19.2255L24.8455 24.4471C24.8366 24.5746 24.8857 24.7043 24.9794 24.7963C25.073 24.8904 25.2046 24.9469 25.3407 24.9469H26.3177H28.3656C28.0912 24.9469 28.9582 24.9479 28.3656 24.9469C28.7141 24.9489 28.64 24.9469 28.3656 24.9469C28.2407 24.9469 27.9866 24.9469 28.3656 24.9469C28.4905 24.9469 28.3262 24.9489 28.8187 24.9489C28.8187 24.9489 29.0312 24.9469 29.3056 24.9469L30.4665 24.9489C30.7409 24.9489 30.4209 24.7635 30.4209 24.5042L30.4665 24.9489H31.4703C31.6063 24.9489 31.7379 24.8946 31.8316 24.8026C31.9253 24.7085 31.9744 24.5809 31.9655 24.4533L31.4435 19.2255Z" fill="white"/>
<path d="M28.5682 13.386C29.7013 13.386 30.6181 14.2475 30.6181 15.3078C30.6181 16.3701 29.6991 17.2295 28.5682 17.2295C27.4351 17.2295 26.5183 16.3701 26.5183 15.3078C26.5183 14.2475 27.4373 13.386 28.5682 13.386Z" fill="white"/>
<path d="M15.6268 18.3472H22.9094C23.1477 18.3472 23.3529 18.5154 23.3997 18.7491L25.2302 27.9019C25.2921 28.2113 25.0555 28.5 24.74 28.5H13.7962C13.4807 28.5 13.2441 28.2113 13.3059 27.9019L15.1365 18.7491C15.1832 18.5154 15.3884 18.3472 15.6268 18.3472Z" stroke="white"/>
</svg>
