<svg width="236" height="74" viewBox="0 0 236 74" fill="none" xmlns="http://www.w3.org/2000/svg">
<path d="M11.9957 11.2259H31.4769C37.7148 11.2259 43.3767 13.0308 43.3767 22.1563C43.3767 29.6774 39.2502 33.588 31.6689 33.588H11.9957V11.2259ZM0 72.5964H11.9957V43.1144H29.6537C40.6899 43.1144 43.281 48.9303 43.281 62.0669C43.281 65.577 43.281 69.4876 45.1043 72.5964H57.9637C55.3729 69.6882 54.2212 62.0669 54.2212 53.7439C54.2212 42.4126 48.1752 39.2035 44.0487 38.6021V38.4012C46.2557 37.5991 55.3729 34.0894 55.3729 20.3514C55.3729 8.21754 47.6954 0.99767 32.7246 0.99767H0V72.5964ZM108.921 49.6325C110.745 34.0894 101.148 19.3484 85.506 19.3484C70.7269 19.3484 61.5139 31.9836 61.5139 46.7246C61.5139 62.6687 70.2471 74 85.7936 74C96.638 74 105.851 67.6827 108.25 56.3511H97.8852C95.9664 62.0669 92.1275 64.9753 85.7936 64.9753C76.6767 64.9753 72.4545 57.755 72.4545 49.6325H108.921ZM72.4545 42.1118C72.7424 34.3902 77.9242 28.3735 85.506 28.3735C92.8952 28.3735 97.5976 34.8916 97.9816 42.1118H72.4545ZM154.237 46.7246C154.237 55.7496 150.494 64.9753 140.514 64.9753C131.685 64.9753 126.599 57.1536 126.599 46.7246C126.599 35.6938 131.301 28.3735 140.514 28.3735C149.535 28.3735 154.237 37.2982 154.237 46.7246V46.7246ZM116.042 72.5964H126.407V65.4766H126.599C129.861 72.2955 137.059 74 143.777 74C158.46 74 165.177 60.8638 165.177 46.925C165.177 31.7828 157.596 19.3484 141.953 19.3484C136.387 19.3484 130.149 22.4572 127.175 27.4709H126.982V0.99767H116.042V72.5964ZM218.246 49.6325C220.069 34.0894 210.473 19.3484 194.83 19.3484C180.051 19.3484 170.839 31.9836 170.839 46.7246C170.839 62.6687 179.571 74 195.118 74C205.962 74 215.175 67.6827 217.574 56.3511H207.21C205.29 62.0669 201.452 64.9753 195.118 64.9753C186.001 64.9753 181.779 57.755 181.779 49.6325H218.246ZM181.779 42.1118C182.066 34.3902 187.249 28.3735 194.83 28.3735C202.22 28.3735 206.922 34.8916 207.306 42.1118H181.779ZM225.06 72.5964H236V0.997311H225.06V72.5964Z" fill="white"/>
</svg>
