<svg width="70" height="68" viewBox="0 0 70 68" fill="none" xmlns="http://www.w3.org/2000/svg">
<ellipse cx="35" cy="33.9855" rx="35" ry="33.9855" fill="#177933"/>
<g clip-path="url(#clip0_845_47717)">
<path d="M50.5879 50.262C50.5879 50.7847 50.1747 51.2085 49.6651 51.2085H17.0767C16.567 51.2085 16.1538 50.7847 16.1538 50.262C16.1538 49.7393 16.567 49.3155 17.0767 49.3155H49.6651C50.1747 49.3155 50.5879 49.7393 50.5879 50.262ZM32.4342 34.7241C32.6121 34.8944 32.838 34.9786 33.0637 34.9786C33.3105 34.9786 33.5568 34.8776 33.7386 34.6779C34.0863 34.2957 34.0661 33.6968 33.6935 33.3401C32.1114 31.8257 32.4499 28.7477 33.8096 27.0074C35.6545 24.6464 36.0605 20.4372 33.6934 18.1722C33.3209 17.8155 32.7368 17.8363 32.3891 18.2187C32.0414 18.6009 32.0617 19.1999 32.4344 19.5565C33.8556 20.9163 33.824 23.962 32.3693 25.8237C31.4133 27.0474 30.8418 28.6874 30.8014 30.3232C30.757 32.1109 31.337 33.674 32.4342 34.7241ZM52.0512 32.7579V34.5736C52.0512 37.1767 49.9867 39.2943 47.4488 39.2943H45.3888C43.9903 43.2822 40.2651 46.1421 35.9012 46.1421H30.8409C25.2836 46.1421 20.7626 41.5052 20.7626 35.8057V26.4156C20.7626 25.8929 21.1758 25.4691 21.6854 25.4691H27.605C28.8065 23.5955 28.7528 20.833 27.4188 19.5564C27.0462 19.1998 27.026 18.6009 27.3737 18.2186C27.7214 17.8363 28.3054 17.8156 28.678 18.1723C31.0446 20.4372 30.6386 24.6463 28.7942 27.0073C27.434 28.7478 27.0954 31.8258 28.678 33.34C29.0506 33.6967 29.0709 34.2955 28.7232 34.6779C28.3756 35.06 27.7915 35.0807 27.4189 34.7243C26.3214 33.674 25.7414 32.111 25.7856 30.3232C25.8108 29.3039 26.0422 28.2829 26.4445 27.3621H22.6083V35.8057C22.6083 40.4615 26.3014 44.2491 30.8409 44.2491H35.9012C40.4407 44.2491 44.1338 40.4614 44.1338 35.8057V27.3621H37.195C36.6853 27.3621 36.2721 26.9383 36.2721 26.4156C36.2721 25.8929 36.6853 25.4691 37.195 25.4691H45.0567C45.5663 25.4691 45.9795 25.8929 45.9795 26.4156V28.0372H47.449C49.9866 28.0372 52.0512 30.1548 52.0512 32.7579ZM50.2055 32.7579C50.2055 31.1987 48.9689 29.9303 47.4488 29.9303H45.9794V37.4014H47.4488C48.9689 37.4014 50.2055 36.1328 50.2055 34.5738V32.7579Z" fill="white"/>
</g>
<defs>
<clipPath id="clip0_845_47717">
<rect width="35.8974" height="36.8179" fill="white" transform="translate(16.1538 16.1543)"/>
</clipPath>
</defs>
</svg>
