<svg width="39" height="38" viewBox="0 0 39 38" fill="none" xmlns="http://www.w3.org/2000/svg">
<ellipse cx="19.5" cy="18.9348" rx="19.5" ry="18.9348" fill="#177933"/>
<path d="M23.84 18.63C24.2405 18.635 24.638 18.5597 25.009 18.4085C25.38 18.2574 25.7169 18.0335 26 17.75L28.83 14.92C29.0162 14.7327 29.1208 14.4792 29.1208 14.215C29.1208 13.9508 29.0162 13.6974 28.83 13.51C28.737 13.4163 28.6264 13.3419 28.5046 13.2911C28.3827 13.2404 28.252 13.2142 28.12 13.2142C27.988 13.2142 27.8573 13.2404 27.7354 13.2911C27.6136 13.3419 27.5029 13.4163 27.41 13.51L24.55 16.33C24.457 16.4238 24.3464 16.4982 24.2246 16.5489C24.1027 16.5997 23.972 16.6258 23.84 16.6258C23.708 16.6258 23.5773 16.5997 23.4554 16.5489C23.3336 16.4982 23.2229 16.4238 23.13 16.33V16.33L26.67 12.8C26.7632 12.7068 26.8372 12.5961 26.8876 12.4743C26.9381 12.3525 26.9641 12.2219 26.9641 12.09C26.9641 11.9582 26.9381 11.8276 26.8876 11.7058C26.8372 11.584 26.7632 11.4733 26.67 11.38C26.5767 11.2868 26.4661 11.2128 26.3442 11.1624C26.2224 11.1119 26.0918 11.0859 25.96 11.0859C25.8281 11.0859 25.6976 11.1119 25.5757 11.1624C25.4539 11.2128 25.3432 11.2868 25.25 11.38L21.72 14.92C21.5337 14.7327 21.4292 14.4792 21.4292 14.215C21.4292 13.9508 21.5337 13.6974 21.72 13.51L24.55 10.68C24.6432 10.5868 24.7172 10.4761 24.7676 10.3543C24.8181 10.2325 24.8441 10.1019 24.8441 9.97003C24.8441 9.83817 24.8181 9.70761 24.7676 9.58578C24.7172 9.46396 24.6432 9.35327 24.55 9.26003C24.4567 9.1668 24.3461 9.09283 24.2242 9.04237C24.1024 8.99191 23.9718 8.96594 23.84 8.96594C23.7081 8.96594 23.5776 8.99191 23.4557 9.04237C23.3339 9.09283 23.2232 9.1668 23.13 9.26003L20.3 12.09C19.7382 12.6525 19.4226 13.415 19.4226 14.21C19.4226 15.005 19.7382 15.7675 20.3 16.33V16.33L19 17.62L10.73 9.32003L10.63 9.26003C10.5789 9.21543 10.5216 9.17839 10.46 9.15003L10.28 9.08003L10.16 9.00003H10.09H9.88999C9.83037 8.9905 9.76961 8.9905 9.70999 9.00003C9.64945 9.02207 9.59224 9.05235 9.53999 9.09003L9.37999 9.19003H9.30999L9.24999 9.29003C9.20766 9.34283 9.17081 9.39979 9.13999 9.46003C9.1107 9.52101 9.08726 9.58463 9.06999 9.65003C9.06999 9.65003 9.06999 9.72003 9.06999 9.76003C8.82732 11.4514 8.98204 13.1761 9.52186 14.7973C10.0617 16.4186 10.9718 17.8917 12.18 19.1L14.82 21.73L9.40999 27.13C9.31626 27.223 9.24186 27.3336 9.1911 27.4555C9.14033 27.5773 9.11419 27.708 9.11419 27.84C9.11419 27.972 9.14033 28.1028 9.1911 28.2246C9.24186 28.3465 9.31626 28.4571 9.40999 28.55C9.50343 28.6427 9.61424 28.716 9.73608 28.7658C9.85792 28.8156 9.98838 28.8408 10.12 28.84C10.2516 28.8408 10.3821 28.8156 10.5039 28.7658C10.6257 28.716 10.7365 28.6427 10.83 28.55L16.9 22.57L19.73 19.74L21.73 17.74C22.288 18.304 23.0466 18.624 23.84 18.63V18.63ZM16.19 20.45L13.56 17.81C12.1184 16.3488 11.2158 14.4413 11 12.4L17.61 19L16.19 20.45ZM22.43 21.02C22.2417 20.8304 21.9858 20.7233 21.7185 20.7224C21.4513 20.7215 21.1946 20.8267 21.005 21.015C20.8154 21.2033 20.7083 21.4593 20.7074 21.7265C20.7064 21.9937 20.8117 22.2504 21 22.44L27.3 28.74C27.491 28.9138 27.7418 29.007 28 29C28.1316 29.0008 28.2621 28.9756 28.3839 28.9258C28.5057 28.876 28.6165 28.8027 28.71 28.71C28.8037 28.6171 28.8781 28.5065 28.9289 28.3846C28.9796 28.2628 29.0058 28.132 29.0058 28C29.0058 27.868 28.9796 27.7373 28.9289 27.6155C28.8781 27.4936 28.8037 27.383 28.71 27.29L22.43 21.02Z" fill="white"/>
</svg>
