<svg width="70" height="68" viewBox="0 0 70 68" fill="none" xmlns="http://www.w3.org/2000/svg">
<ellipse cx="35" cy="33.9855" rx="35" ry="33.9855" fill="#177933"/>
<path d="M42.7897 33.4383C43.5087 33.4472 44.2221 33.3121 44.888 33.0408C45.5538 32.7695 46.1586 32.3676 46.6666 31.8588L51.7461 26.7794C52.0804 26.4431 52.2681 25.9882 52.2681 25.514C52.2681 25.0398 52.0804 24.5849 51.7461 24.2486C51.5793 24.0804 51.3808 23.9468 51.162 23.8557C50.9433 23.7646 50.7087 23.7177 50.4718 23.7177C50.2348 23.7177 50.0002 23.7646 49.7815 23.8557C49.5628 23.9468 49.3643 24.0804 49.1974 24.2486L44.0641 29.3101C43.8972 29.4784 43.6987 29.6119 43.48 29.703C43.2613 29.7941 43.0267 29.8411 42.7897 29.8411C42.5528 29.8411 42.3182 29.7941 42.0994 29.703C41.8807 29.6119 41.6822 29.4784 41.5154 29.3101V29.3101L47.8692 22.9742C48.0366 22.8069 48.1693 22.6082 48.2599 22.3896C48.3504 22.1709 48.3971 21.9365 48.3971 21.6999C48.3971 21.4632 48.3504 21.2289 48.2599 21.0102C48.1693 20.7915 48.0366 20.5929 47.8692 20.4255C47.7018 20.2582 47.5032 20.1254 47.2845 20.0348C47.0659 19.9443 46.8315 19.8977 46.5948 19.8977C46.3582 19.8977 46.1238 19.9443 45.9052 20.0348C45.6865 20.1254 45.4878 20.2582 45.3205 20.4255L38.9846 26.7794C38.6503 26.4431 38.4627 25.9882 38.4627 25.514C38.4627 25.0398 38.6503 24.5849 38.9846 24.2486L44.0641 19.1691C44.2314 19.0018 44.3642 18.8031 44.4547 18.5844C44.5453 18.3658 44.5919 18.1314 44.5919 17.8947C44.5919 17.6581 44.5453 17.4237 44.4547 17.2051C44.3642 16.9864 44.2314 16.7877 44.0641 16.6204C43.8967 16.453 43.698 16.3203 43.4794 16.2297C43.2607 16.1391 43.0264 16.0925 42.7897 16.0925C42.553 16.0925 42.3187 16.1391 42.1 16.2297C41.8814 16.3203 41.6827 16.453 41.5154 16.6204L36.4359 21.6999C35.4275 22.7095 34.8611 24.0781 34.8611 25.505C34.8611 26.9319 35.4275 28.3005 36.4359 29.3101V29.3101L34.1025 31.6255L19.2589 16.7281L19.0795 16.6204C18.9877 16.5403 18.885 16.4738 18.7743 16.423L18.4513 16.2973L18.2359 16.1537H18.1102H17.7513C17.6442 16.1366 17.5352 16.1366 17.4282 16.1537C17.3195 16.1933 17.2168 16.2476 17.123 16.3153L16.8359 16.4947H16.7102L16.6025 16.6742C16.5266 16.769 16.4604 16.8712 16.4051 16.9794C16.3525 17.0888 16.3105 17.203 16.2795 17.3204C16.2795 17.3204 16.2795 17.446 16.2795 17.5178C15.8439 20.5537 16.1216 23.6493 17.0905 26.5592C18.0594 29.469 19.6929 32.1132 21.8615 34.2819L26.6 39.0024L16.8897 48.6947C16.7215 48.8616 16.588 49.0601 16.4968 49.2788C16.4057 49.4976 16.3588 49.7322 16.3588 49.9691C16.3588 50.2061 16.4057 50.4407 16.4968 50.6594C16.588 50.8781 16.7215 51.0766 16.8897 51.2435C17.0574 51.4098 17.2563 51.5414 17.475 51.6307C17.6937 51.7201 17.9279 51.7653 18.1641 51.764C18.4003 51.7653 18.6345 51.7201 18.8531 51.6307C19.0718 51.5414 19.2707 51.4098 19.4384 51.2435L30.3333 40.5101L35.4128 35.4306L39.0025 31.8409C40.004 32.8532 41.3658 33.4276 42.7897 33.4383V33.4383ZM29.0589 36.705L24.3384 31.9665C21.751 29.3438 20.131 25.9201 19.7436 22.2563L31.6077 34.1024L29.0589 36.705ZM40.2589 37.7281C39.921 37.3877 39.4616 37.1956 38.982 37.1939C38.5023 37.1922 38.0416 37.3811 37.7013 37.7191C37.3609 38.0571 37.1687 38.5164 37.1671 38.9961C37.1654 39.4758 37.3543 39.9364 37.6923 40.2768L49 51.5845C49.3428 51.8964 49.793 52.0637 50.2564 52.0512C50.4926 52.0525 50.7268 52.0072 50.9454 51.9179C51.1641 51.8286 51.363 51.697 51.5307 51.5306C51.699 51.3638 51.8325 51.1653 51.9236 50.9466C52.0147 50.7278 52.0617 50.4932 52.0617 50.2563C52.0617 50.0193 52.0147 49.7847 51.9236 49.566C51.8325 49.3473 51.699 49.1488 51.5307 48.9819L40.2589 37.7281Z" fill="white"/>
</svg>
