<svg width="232" height="72" viewBox="0 0 232 72" fill="none" xmlns="http://www.w3.org/2000/svg">
<path d="M11.7924 10.0553L30.9434 10.0553C37.0756 10.0553 42.6415 11.8295 42.6415 20.8004C42.6415 28.194 38.585 32.0384 31.1321 32.0384L11.7924 32.0384L11.7924 10.0553ZM0 70.3856H11.7924L11.7924 41.4033H29.1511C40.0002 41.4033 42.5474 47.1206 42.5474 60.0345C42.5474 63.4852 42.5474 67.3294 44.3399 70.3856H56.9812C54.4344 67.5266 53.3022 60.0345 53.3022 51.8526C53.3022 40.7134 47.3587 37.5586 43.3021 36.9674V36.77C45.4718 35.9814 54.4344 32.5312 54.4344 19.0261C54.4344 7.09787 46.887 0.000377257 32.1699 0.000377257H0L0 70.3856ZM107.075 47.8109C108.868 32.5312 99.4338 18.0401 84.0567 18.0401C69.5281 18.0401 60.4713 30.4611 60.4713 44.9523C60.4713 60.6261 69.0565 71.7654 84.3394 71.7654C95.0001 71.7654 104.057 65.5552 106.415 54.4157H96.2261C94.3398 60.0345 90.566 62.8936 84.3394 62.8936C75.3771 62.8936 71.2264 55.7957 71.2264 47.8109H107.075ZM71.2264 40.4177C71.5095 32.827 76.6035 26.9122 84.0567 26.9122C91.3207 26.9122 95.9434 33.3198 96.3209 40.4177H71.2264ZM151.623 44.9523C151.623 53.8243 147.944 62.8936 138.132 62.8936C129.453 62.8936 124.453 55.2046 124.453 44.9523C124.453 34.1084 129.076 26.9122 138.132 26.9122C147 26.9122 151.623 35.6856 151.623 44.9523V44.9523ZM114.075 70.3856H124.264V63.3864H124.453C127.66 70.0898 134.736 71.7654 141.34 71.7654C155.774 71.7654 162.378 58.8519 162.378 45.1493C162.378 30.2637 154.925 18.0401 139.547 18.0401C134.076 18.0401 127.943 21.0962 125.019 26.0249H124.83L124.83 0.000377257L114.075 0.000377257L114.075 70.3856ZM214.547 47.8109C216.34 32.5312 206.906 18.0401 191.528 18.0401C176.999 18.0401 167.943 30.4611 167.943 44.9523C167.943 60.6261 176.528 71.7654 191.811 71.7654C202.471 71.7654 211.528 65.5552 213.887 54.4157H203.698C201.811 60.0345 198.037 62.8936 191.811 62.8936C182.849 62.8936 178.698 55.7957 178.698 47.8109L214.547 47.8109ZM178.698 40.4177C178.981 32.827 184.075 26.9122 191.528 26.9122C198.792 26.9122 203.415 33.3198 203.792 40.4177L178.698 40.4177ZM221.245 70.3856H232V2.43825e-05H221.245V70.3856Z" fill="#231F20"/>
</svg>
