<svg width="38" height="38" viewBox="0 0 38 38" fill="none" xmlns="http://www.w3.org/2000/svg">
<circle cx="19" cy="19" r="19" fill="#FFC0D8"/>
<path fill-rule="evenodd" clip-rule="evenodd" d="M11.75 11C11.75 9.20507 13.2051 7.75 15 7.75C16.7949 7.75 18.25 9.20507 18.25 11C18.25 12.7949 16.7949 14.25 15 14.25C13.2051 14.25 11.75 12.7949 11.75 11ZM15 6.25C12.3766 6.25 10.25 8.37665 10.25 11C10.25 12.5322 10.9754 13.8949 12.1016 14.7635C9.94053 15.5373 8.03099 17.1422 6.90869 19.28L8.23679 19.9772C9.59604 17.3882 12.3186 15.75 15 15.75C17.6815 15.75 20.404 17.3882 21.7633 19.9772L23.0914 19.28C21.9691 17.1422 20.0595 15.5373 17.8984 14.7635C19.0246 13.8949 19.75 12.5322 19.75 11C19.75 8.37665 17.6233 6.25 15 6.25Z" fill="#3C3C3C"/>
<path fill-rule="evenodd" clip-rule="evenodd" d="M34.5303 14.9311C33.6852 14.0859 32.3148 14.0859 31.4697 14.9311L22.2375 24.1633C21.5491 23.8722 20.7926 23.7115 20 23.7115C16.8244 23.7115 14.25 26.2858 14.25 29.4615C14.25 32.6371 16.8244 35.2115 20 35.2115C23.1756 35.2115 25.75 32.6371 25.75 29.4615C25.75 28.6688 25.5892 27.9123 25.2982 27.2239L27 25.5221L28.4697 26.9918C29.3148 27.837 30.6852 27.837 31.5303 26.9918C32.3755 26.1466 32.3755 24.7763 31.5303 23.9311L30.0607 22.4615L31.5 21.0221L32.9697 22.4918C33.8148 23.337 35.1852 23.337 36.0303 22.4918C36.8755 21.6466 36.8755 20.2763 36.0303 19.4311L34.5604 17.9612C35.3754 17.1138 35.3654 15.7662 34.5303 14.9311ZM32.5303 15.9918C32.7897 15.7324 33.2103 15.7324 33.4697 15.9918C33.7291 16.2512 33.7291 16.6717 33.4697 16.9311L32.9697 17.4311C32.6768 17.724 32.6768 18.1989 32.9697 18.4918L34.9697 20.4918C35.2291 20.7512 35.2291 21.1717 34.9697 21.4311C34.7103 21.6905 34.2897 21.6905 34.0303 21.4311L32.0303 19.4311C31.7374 19.1382 31.2626 19.1382 30.9697 19.4311L28.4697 21.9311C28.1768 22.224 28.1768 22.6989 28.4697 22.9918L30.4697 24.9918C30.7291 25.2512 30.7291 25.6717 30.4697 25.9311C30.2103 26.1905 29.7897 26.1905 29.5303 25.9311L27.5303 23.9311C27.2374 23.6382 26.7626 23.6382 26.4697 23.9311L23.8615 26.5393C23.6262 26.7746 23.5741 27.1368 23.7335 27.4289C24.0627 28.0319 24.25 28.7237 24.25 29.4615C24.25 31.8087 22.3472 33.7115 20 33.7115C17.6528 33.7115 15.75 31.8087 15.75 29.4615C15.75 27.1142 17.6528 25.2115 20 25.2115C20.7378 25.2115 21.4295 25.3988 22.0326 25.7279C22.3247 25.8873 22.6869 25.8352 22.9222 25.5999L32.5303 15.9918ZM18.75 29.4615C18.75 28.7711 19.3096 28.2115 20 28.2115C20.6904 28.2115 21.25 28.7711 21.25 29.4615C21.25 30.1518 20.6904 30.7115 20 30.7115C19.3096 30.7115 18.75 30.1518 18.75 29.4615ZM20 26.7115C18.4812 26.7115 17.25 27.9427 17.25 29.4615C17.25 30.9802 18.4812 32.2115 20 32.2115C21.5188 32.2115 22.75 30.9802 22.75 29.4615C22.75 27.9427 21.5188 26.7115 20 26.7115Z" fill="#3C3C3C"/>
</svg>
