<svg width="70" height="68" viewBox="0 0 70 68" fill="none" xmlns="http://www.w3.org/2000/svg">
<ellipse cx="35" cy="33.9855" rx="35" ry="33.9855" fill="#2C2877"/>
<path d="M24.4086 34.5067C24.2685 33.1067 23.0154 32.0332 21.514 32.0332H16.3895C14.8881 32.0332 13.635 33.1067 13.4949 34.5067L12.5661 43.8787C12.5501 44.1077 12.6381 44.3404 12.8063 44.5056C12.9744 44.6745 13.2106 44.7758 13.4549 44.7758H15.2084H18.8842C18.3917 44.7758 19.9478 44.7777 18.8842 44.7758C19.5097 44.7795 19.3766 44.7758 18.8842 44.7758C18.66 44.7758 18.2039 44.7758 18.8842 44.7758C19.1084 44.7758 18.8134 44.7796 19.6974 44.7796C19.6974 44.7796 20.0789 44.7758 20.5713 44.7758L22.655 44.7796C23.1475 44.7796 22.5731 44.4468 22.5731 43.9813L22.655 44.7796H24.4567C24.7009 44.7796 24.9371 44.682 25.1052 44.5168C25.2734 44.3479 25.3615 44.119 25.3454 43.89L24.4086 34.5067Z" fill="white"/>
<path d="M19.2481 24.0254C21.2819 24.0254 22.9274 25.5718 22.9274 27.4747C22.9274 29.3814 21.2779 30.924 19.2481 30.924C17.2143 30.924 15.5688 29.3814 15.5688 27.4747C15.5688 25.5718 17.2183 24.0254 19.2481 24.0254Z" fill="white"/>
<path d="M39.7073 25.7153C39.5757 24.8358 38.3983 24.1615 36.9877 24.1615H32.1727C30.7621 24.1615 29.5847 24.8358 29.4531 25.7153L28.5804 31.6028C28.5653 31.7466 28.6481 31.8928 28.8061 31.9965C28.964 32.1026 29.186 32.1663 29.4154 32.1663H31.0631H34.5167C34.054 32.1663 35.5161 32.1675 34.5167 32.1663C35.1045 32.1686 34.9794 32.1663 34.5167 32.1663C34.306 32.1663 33.8775 32.1663 34.5167 32.1663C34.7273 32.1663 34.4502 32.1686 35.2808 32.1686C35.2808 32.1686 35.6392 32.1663 36.1019 32.1663L38.0597 32.1686C38.5224 32.1686 37.9827 31.9596 37.9827 31.6672L38.0597 32.1686H39.7525C39.9819 32.1686 40.2039 32.1073 40.3619 32.0036C40.5198 31.8975 40.6026 31.7537 40.5876 31.6098L39.7073 25.7153Z" fill="white"/>
<path d="M34.2596 16.1538C36.2934 16.1538 37.9389 17.7002 37.9389 19.6031C37.9389 21.5098 36.2894 23.0524 34.2596 23.0524C32.2258 23.0524 30.5803 21.5098 30.5803 19.6031C30.5803 17.7002 32.2298 16.1538 34.2596 16.1538Z" fill="white"/>
<path d="M56.4372 34.5067C56.297 33.1067 55.0439 32.0332 53.5426 32.0332H48.418C46.9167 32.0332 45.6636 33.1067 45.5235 34.5067L44.5946 43.8787C44.5786 44.1077 44.6667 44.3404 44.8348 44.5056C45.003 44.6745 45.2392 44.7758 45.4834 44.7758H47.237H50.9127C50.4203 44.7758 51.9764 44.7777 50.9127 44.7758C51.5383 44.7795 51.4052 44.7758 50.9127 44.7758C50.6885 44.7758 50.2325 44.7758 50.9127 44.7758C51.1369 44.7758 50.8419 44.7796 51.726 44.7796C51.726 44.7796 52.1075 44.7758 52.5999 44.7758L54.6836 44.7796C55.1761 44.7796 54.6017 44.4468 54.6017 43.9813L54.6836 44.7796H56.4852C56.7294 44.7796 56.9656 44.682 57.1338 44.5168C57.3019 44.3479 57.39 44.119 57.374 43.89L56.4372 34.5067Z" fill="white"/>
<path d="M51.2767 24.0254C53.3105 24.0254 54.956 25.5718 54.956 27.4747C54.956 29.3814 53.3065 30.924 51.2767 30.924C49.2429 30.924 47.5974 29.3814 47.5974 27.4747C47.5974 25.5718 49.2469 24.0254 51.2767 24.0254Z" fill="white"/>
<path d="M27.3966 32.5332H41.7713C42.0096 32.5332 42.2148 32.7014 42.2615 32.9351L45.8651 50.953C45.927 51.2624 45.6903 51.551 45.3748 51.551H23.793C23.4775 51.551 23.2409 51.2624 23.3028 50.953L26.9063 32.9351C26.9531 32.7014 27.1583 32.5332 27.3966 32.5332Z" stroke="white"/>
</svg>
