<svg width="28" height="28" viewBox="0 0 28 28" fill="none" xmlns="http://www.w3.org/2000/svg">
<circle cx="14" cy="14" r="14" fill="#F7A600"/>
<path d="M23.1667 21.4999V19.8333C23.1662 19.0947 22.9204 18.3773 22.4679 17.7935C22.0154 17.2098 21.3819 16.7929 20.6667 16.6083" stroke="white" stroke-width="1.5" stroke-linecap="round" stroke-linejoin="round"/>
<path d="M18.1666 21.5V19.8333C18.1666 18.9493 17.8154 18.1014 17.1903 17.4763C16.5652 16.8512 15.7173 16.5 14.8333 16.5H8.16659C7.28253 16.5 6.43468 16.8512 5.80956 17.4763C5.18444 18.1014 4.83325 18.9493 4.83325 19.8333V21.5" stroke="white" stroke-width="1.5" stroke-linecap="round" stroke-linejoin="round"/>
<path d="M17.3333 6.60828C18.0503 6.79186 18.6858 7.20886 19.1396 7.79353C19.5935 8.37821 19.8398 9.0973 19.8398 9.83744C19.8398 10.5776 19.5935 11.2967 19.1396 11.8814C18.6858 12.466 18.0503 12.883 17.3333 13.0666" stroke="white" stroke-width="1.5" stroke-linecap="round" stroke-linejoin="round"/>
<path d="M11.5001 13.1667C13.341 13.1667 14.8334 11.6743 14.8334 9.83333C14.8334 7.99238 13.341 6.5 11.5001 6.5C9.65913 6.5 8.16675 7.99238 8.16675 9.83333C8.16675 11.6743 9.65913 13.1667 11.5001 13.1667Z" stroke="white" stroke-width="1.5" stroke-linecap="round" stroke-linejoin="round"/>
</svg>
