<svg width="39" height="38" viewBox="0 0 39 38" fill="none" xmlns="http://www.w3.org/2000/svg">
<ellipse cx="19.5" cy="18.9348" rx="19.5" ry="18.9348" fill="#177933"/>
<path d="M28.1847 28.0029C28.1847 28.2941 27.9545 28.5303 27.6706 28.5303H9.51416C9.23022 28.5303 9 28.2941 9 28.0029C9 27.7117 9.23022 27.4756 9.51416 27.4756H27.6706C27.9545 27.4756 28.1847 27.7117 28.1847 28.0029ZM18.0705 19.3461C18.1696 19.441 18.2955 19.4879 18.4212 19.4879C18.5588 19.4879 18.696 19.4316 18.7973 19.3203C18.991 19.1074 18.9797 18.7737 18.7721 18.575C17.8907 17.7313 18.0792 16.0164 18.8368 15.0468C19.8647 13.7314 20.0909 11.3863 18.7721 10.1243C18.5645 9.92559 18.2391 9.93719 18.0454 10.1502C17.8516 10.3632 17.863 10.6969 18.0706 10.8956C18.8624 11.6532 18.8448 13.35 18.0344 14.3873C17.5017 15.0691 17.1833 15.9828 17.1608 16.8942C17.1361 17.8902 17.4592 18.761 18.0705 19.3461ZM29 18.2506V19.2623C29 20.7125 27.8498 21.8923 26.4358 21.8923H25.2881C24.5089 24.1142 22.4334 25.7076 20.0021 25.7076H17.1828C14.0866 25.7076 11.5677 23.1242 11.5677 19.9487V14.7171C11.5677 14.4258 11.7979 14.1897 12.0819 14.1897H15.3799C16.0494 13.1459 16.0194 11.6068 15.2762 10.8955C15.0686 10.6968 15.0574 10.3632 15.2511 10.1502C15.4448 9.93719 15.7702 9.92566 15.9778 10.1244C17.2963 11.3863 17.0701 13.7313 16.0425 15.0467C15.2847 16.0164 15.0961 17.7313 15.9778 18.5749C16.1854 18.7737 16.1967 19.1073 16.003 19.3203C15.8093 19.5333 15.4839 19.5448 15.2763 19.3462C14.6648 18.761 14.3416 17.8902 14.3663 16.8942C14.3803 16.3263 14.5093 15.7575 14.7334 15.2444H12.5961V19.9487C12.5961 22.5426 14.6537 24.6529 17.1828 24.6529H20.0021C22.5312 24.6529 24.5889 22.5426 24.5889 19.9487V15.2444H20.7229C20.439 15.2444 20.2088 15.0083 20.2088 14.7171C20.2088 14.4258 20.439 14.1897 20.7229 14.1897H25.103C25.387 14.1897 25.6172 14.4258 25.6172 14.7171V15.6205H26.4359C27.8497 15.6205 29 16.8004 29 18.2506ZM27.9717 18.2506C27.9717 17.3819 27.2827 16.6752 26.4358 16.6752H25.6171V20.8377H26.4358C27.2827 20.8377 27.9717 20.1309 27.9717 19.2623V18.2506Z" fill="white"/>
</svg>
