<svg width="18" height="20" viewBox="0 0 18 20" fill="none" xmlns="http://www.w3.org/2000/svg">
<path d="M2.43949 16.4848H4.03569V14.974H2.41941C2.10485 14.974 1.86392 14.8807 1.6966 14.6942C1.52929 14.5077 1.44563 14.2391 1.44563 13.8884V5.52851C1.44563 5.17786 1.52929 4.90927 1.6966 4.72274C1.86392 4.53622 2.10485 4.44296 2.41941 4.44296H15.5806C15.8885 4.44296 16.126 4.53622 16.2934 4.72274C16.4607 4.90927 16.5443 5.17786 16.5443 5.52851V13.8884C16.5443 14.2391 16.4607 14.5077 16.2934 14.6942C16.126 14.8807 15.8885 14.974 15.5806 14.974H14.0948V16.4848H15.5605C16.3502 16.4848 16.9543 16.2591 17.3726 15.8077C17.7909 15.3564 18 14.6905 18 13.8101V5.60685C18 4.72647 17.7909 4.06059 17.3726 3.60921C16.9543 3.15782 16.3502 2.93213 15.5605 2.93213H2.43949C1.68991 2.93213 1.09593 3.15782 0.657564 3.60921C0.219188 4.06059 0 4.72647 0 5.60685V13.8101C0 14.6905 0.207476 15.3564 0.622428 15.8077C1.03737 16.2591 1.64306 16.4848 2.43949 16.4848ZM4.66815 19.0588H13.3318C13.8137 19.0588 14.1785 18.9301 14.4261 18.6727C14.6737 18.4153 14.7975 17.9994 14.7975 17.4249V10.1505C14.7975 9.5835 14.6737 9.16943 14.4261 8.90829C14.1785 8.64716 13.8137 8.51659 13.3318 8.51659H4.66815C4.21305 8.51659 3.85499 8.64716 3.59398 8.90829C3.33296 9.16943 3.20245 9.5835 3.20245 10.1505V17.4249C3.20245 17.9994 3.32627 18.4153 3.57389 18.6727C3.82153 18.9301 4.18628 19.0588 4.66815 19.0588ZM5.13998 17.5592C4.98606 17.5592 4.86559 17.5126 4.77858 17.4193C4.69157 17.326 4.64806 17.1861 4.64806 16.9996V10.5646C4.64806 10.3856 4.69157 10.2494 4.77858 10.1561C4.86559 10.0629 4.98606 10.0162 5.13998 10.0162H12.86C13.0206 10.0162 13.1411 10.0629 13.2214 10.1561C13.3017 10.2494 13.3419 10.3856 13.3419 10.5646V16.9996C13.3419 17.1861 13.3017 17.326 13.2214 17.4193C13.1411 17.5126 13.0206 17.5592 12.86 17.5592H5.13998ZM3.13218 3.83863H4.5276V2.47328C4.5276 2.14501 4.60792 1.8932 4.76855 1.71786C4.92917 1.54254 5.16007 1.45488 5.46123 1.45488H12.5388C12.8399 1.45488 13.0708 1.54254 13.2315 1.71786C13.3921 1.8932 13.4724 2.14501 13.4724 2.47328V3.81624H14.8578V2.59638C14.8578 1.70109 14.6587 1.04453 14.2605 0.626719C13.8622 0.208906 13.2816 0 12.5187 0H5.48132C4.7652 0 4.19465 0.208906 3.76966 0.626719C3.34467 1.04453 3.13218 1.70109 3.13218 2.59638V3.83863ZM6.39486 12.87H11.6252C11.7791 12.87 11.908 12.8103 12.0117 12.691C12.1154 12.5716 12.1673 12.4261 12.1673 12.2545C12.1673 12.0829 12.1154 11.9411 12.0117 11.8292C11.908 11.7173 11.7791 11.6614 11.6252 11.6614H6.39486C6.23424 11.6614 6.10206 11.7173 5.99832 11.8292C5.89459 11.9411 5.84272 12.0829 5.84272 12.2545C5.84272 12.4261 5.89459 12.5716 5.99832 12.691C6.10206 12.8103 6.23424 12.87 6.39486 12.87ZM6.39486 15.9141H11.6252C11.7791 15.9141 11.908 15.8581 12.0117 15.7462C12.1154 15.6343 12.1673 15.4925 12.1673 15.3209C12.1673 15.1493 12.1154 15.0038 12.0117 14.8845C11.908 14.7651 11.7791 14.7054 11.6252 14.7054H6.39486C6.23424 14.7054 6.10206 14.7651 5.99832 14.8845C5.89459 15.0038 5.84272 15.1493 5.84272 15.3209C5.84272 15.4925 5.89459 15.6343 5.99832 15.7462C6.10206 15.8581 6.23424 15.9141 6.39486 15.9141ZM12.86 6.47978C12.86 6.79314 12.9587 7.058 13.1562 7.27436C13.3536 7.49073 13.5895 7.59518 13.8639 7.58772C14.1383 7.58772 14.3742 7.4814 14.5717 7.26877C14.7691 7.05613 14.8678 6.79314 14.8678 6.47978C14.8678 6.18135 14.7691 5.92208 14.5717 5.70197C14.3742 5.48188 14.1383 5.37183 13.8639 5.37183C13.5895 5.37183 13.3536 5.48188 13.1562 5.70197C12.9587 5.92208 12.86 6.18135 12.86 6.47978Z" fill="#2C2877"/>
</svg>
